<?xml version="1.0" encoding="utf-8"?>
<!-- Generator: Adobe Illustrator 16.0.0, SVG Export Plug-In . SVG Version: 6.00 Build 0)  -->
<!DOCTYPE svg PUBLIC "-//W3C//DTD SVG 1.1//EN" "http://www.w3.org/Graphics/SVG/1.1/DTD/svg11.dtd">
<svg version="1.1" id="Layer_1" xmlns="http://www.w3.org/2000/svg" xmlns:xlink="http://www.w3.org/1999/xlink" x="0px" y="0px"
	 width="95.75px" height="18.791px" viewBox="0 0 95.75 18.791" enable-background="new 0 0 95.75 18.791" xml:space="preserve">
<path fill="none" d="M94.75,9.396c0,4.637-3.759,8.396-8.396,8.396H9.396C4.759,17.791,1,14.032,1,9.396l0,0
	C1,4.759,4.759,1,9.396,1h76.959C90.991,1,94.75,4.759,94.75,9.396L94.75,9.396z"/>
<g>
	<g>
		<path d="M43.598,4.765v8.869h-1.555V5.853h-1.569V4.765H43.598z"/>
		<path d="M52.629,7.65v3.11h-0.014c-0.028,1.727-1.625,2.992-3.6,2.992s-3.572-1.265-3.6-2.992V7.65
			c0.028-1.714,1.625-2.992,3.6-2.992s3.572,1.277,3.6,2.992H52.629z M51.173,7.698c0-1.064-0.967-1.809-2.157-1.809
			s-2.157,0.745-2.157,1.809v3.016c0,1.064,0.967,1.821,2.157,1.821s2.157-0.757,2.157-1.821V7.698z"/>
	</g>
</g>
</svg>
