<?xml version="1.0" encoding="utf-8"?>
<!-- Generator: Adobe Illustrator 16.0.0, SVG Export Plug-In . SVG Version: 6.00 Build 0)  -->
<!DOCTYPE svg PUBLIC "-//W3C//DTD SVG 1.1//EN" "http://www.w3.org/Graphics/SVG/1.1/DTD/svg11.dtd">
<svg version="1.1" id="Layer_1" xmlns="http://www.w3.org/2000/svg" xmlns:xlink="http://www.w3.org/1999/xlink" x="0px" y="0px"
	 width="95.75px" height="18.791px" viewBox="0 0 95.75 18.791" enable-background="new 0 0 95.75 18.791" xml:space="preserve">
<g>
	<path stroke="#D9B44E" stroke-width="2" stroke-miterlimit="10" d="M94.75,9.396c0,4.637-3.759,8.396-8.396,8.396H9.396
		C4.759,17.791,1,14.032,1,9.396l0,0C1,4.759,4.759,1,9.396,1h76.959C90.991,1,94.75,4.759,94.75,9.396L94.75,9.396z"/>
	<g>
		<g>
			<path fill="#D9B44E" d="M46.665,10.713c0,1.75-1.681,3.039-3.74,3.039c-1.233,0-2.339-0.508-3.012-1.289l1.401-0.508
				c0.434,0.367,1.008,0.567,1.611,0.567c1.261,0,2.283-0.626,2.283-1.809c0-1.041-1.009-1.916-2.283-1.916h-1.107l2.55-2.933
				h-3.236v-1.1h5.785l-2.62,3.016C45.685,8.242,46.665,9.389,46.665,10.713z"/>
			<path fill="#D9B44E" d="M55.667,7.65v3.11h-0.014c-0.028,1.727-1.625,2.992-3.6,2.992s-3.572-1.265-3.6-2.992V7.65
				c0.028-1.714,1.625-2.992,3.6-2.992s3.572,1.277,3.6,2.992H55.667z M54.211,7.698c0-1.064-0.967-1.809-2.157-1.809
				s-2.157,0.745-2.157,1.809v3.016c0,1.064,0.967,1.821,2.157,1.821s2.157-0.757,2.157-1.821V7.698z"/>
		</g>
	</g>
</g>
</svg>
