<?xml version="1.0" encoding="utf-8"?>
<!-- Generator: Adobe Illustrator 16.0.0, SVG Export Plug-In . SVG Version: 6.00 Build 0)  -->
<!DOCTYPE svg PUBLIC "-//W3C//DTD SVG 1.1//EN" "http://www.w3.org/Graphics/SVG/1.1/DTD/svg11.dtd">
<svg version="1.1" id="Layer_1" xmlns="http://www.w3.org/2000/svg" xmlns:xlink="http://www.w3.org/1999/xlink" x="0px" y="0px"
	 width="95.75px" height="18.791px" viewBox="0 0 95.75 18.791" enable-background="new 0 0 95.75 18.791" xml:space="preserve">
<path fill="none" d="M94.75,9.396c0,4.637-3.759,8.396-8.396,8.396H9.396C4.759,17.791,1,14.032,1,9.396l0,0
	C1,4.759,4.759,1,9.396,1h76.959C90.991,1,94.75,4.759,94.75,9.396L94.75,9.396z"/>
<g>
	<g>
		<path d="M46.197,9.282l-2.914,4.352h-1.653l1.863-2.814c-0.14,0.012-0.28,0.023-0.42,0.023c-1.989,0-3.6-1.419-3.6-3.157
			s1.611-3.039,3.6-3.039s3.614,1.301,3.614,3.039C46.688,8.266,46.506,8.81,46.197,9.282z M43.074,9.614
			c1.191,0,2.157-0.863,2.157-1.928s-0.966-1.809-2.157-1.809c-1.19,0-2.157,0.745-2.157,1.809S41.883,9.614,43.074,9.614z"/>
		<path d="M55.157,7.65v3.11h-0.014c-0.028,1.727-1.625,2.992-3.6,2.992s-3.572-1.265-3.6-2.992V7.65
			c0.028-1.714,1.625-2.992,3.6-2.992s3.572,1.277,3.6,2.992H55.157z M53.701,7.698c0-1.064-0.966-1.809-2.157-1.809
			c-1.19,0-2.157,0.745-2.157,1.809v3.016c0,1.064,0.967,1.821,2.157,1.821c1.191,0,2.157-0.757,2.157-1.821V7.698z"/>
	</g>
</g>
</svg>
