<?xml version="1.0" encoding="utf-8"?>
<!-- Generator: Adobe Illustrator 16.0.0, SVG Export Plug-In . SVG Version: 6.00 Build 0)  -->
<!DOCTYPE svg PUBLIC "-//W3C//DTD SVG 1.1//EN" "http://www.w3.org/Graphics/SVG/1.1/DTD/svg11.dtd">
<svg version="1.1" id="Layer_1" xmlns="http://www.w3.org/2000/svg" xmlns:xlink="http://www.w3.org/1999/xlink" x="0px" y="0px"
	 width="1080px" height="1080px" viewBox="0 0 1080 1080" enable-background="new 0 0 1080 1080" xml:space="preserve">
<path d="M540,0C240.545,0,0,240.545,0,540c0,299.454,240.545,540,540,540c299.455,0,540-240.546,540-540
	C1080,240.545,839.455,0,540,0z M618.546,549.818l184.091,184.091c4.908,4.909,7.363,12.272,7.363,17.182
	s-2.455,12.272-7.363,17.182l-34.364,34.364C763.363,807.546,756,810,751.091,810c-7.363,0-12.272-2.454-17.182-7.363
	L549.818,618.546c-4.909-4.909-12.273-4.909-17.182,0L348.545,802.637c-4.908,4.909-12.272,7.363-17.182,7.363
	c-7.363,0-12.272-2.454-17.182-7.363l-34.363-34.364c-4.909-4.909-7.364-12.272-7.364-17.182s2.455-12.272,7.364-17.182
	l184.091-184.091c4.909-4.909,4.909-12.273,0-17.182L279.818,348.545c-4.909-4.909-7.364-12.273-7.364-17.182
	c0-4.909,2.455-12.273,7.364-17.182l34.363-34.363c4.909-4.909,12.272-7.364,17.182-7.364s12.273,2.455,17.182,7.364
	l184.092,184.091c4.908,4.909,12.272,4.909,17.182,0l184.091-184.091c4.909-4.909,12.272-7.364,17.182-7.364
	c7.363,0,12.272,2.455,17.182,7.364l34.364,34.363c4.908,4.909,7.363,12.273,7.363,17.182c0,4.909-2.455,12.272-7.363,17.182
	L618.546,532.637C613.637,535.091,613.637,544.909,618.546,549.818z"/>
</svg>
