<?xml version="1.0" encoding="utf-8"?>
<!-- Generator: Adobe Illustrator 16.0.0, SVG Export Plug-In . SVG Version: 6.00 Build 0)  -->
<!DOCTYPE svg PUBLIC "-//W3C//DTD SVG 1.1//EN" "http://www.w3.org/Graphics/SVG/1.1/DTD/svg11.dtd">
<svg version="1.1" id="Layer_1" xmlns="http://www.w3.org/2000/svg" xmlns:xlink="http://www.w3.org/1999/xlink" x="0px" y="0px"
	 width="85.604px" height="21.603px" viewBox="0 0 85.604 21.603" enable-background="new 0 0 85.604 21.603" xml:space="preserve">
<path fill="none" stroke="#FFFFFF" stroke-width="2" stroke-miterlimit="10" d="M84.604,12.349c0,4.559-3.696,8.253-8.254,8.253
	H9.253C4.695,20.603,1,16.908,1,12.349V9.253C1,4.695,4.695,1,9.253,1H76.35c4.559,0,8.254,3.695,8.254,8.253V12.349z"/>
<g>
	<path fill="#FFFFFF" stroke="#FFFFFF" stroke-width="0.25" stroke-miterlimit="10" d="M30.993,15.991
		c-0.414,0.216-1.333,0.504-2.503,0.504c-2.629,0-4.339-1.783-4.339-4.447c0-2.683,1.836-4.627,4.682-4.627
		c0.936,0,1.764,0.234,2.197,0.45l-0.36,1.224c-0.378-0.216-0.972-0.414-1.836-0.414c-1.999,0-3.079,1.477-3.079,3.295
		c0,2.017,1.296,3.259,3.025,3.259c0.9,0,1.495-0.234,1.945-0.433L30.993,15.991z"/>
	<path fill="#FFFFFF" stroke="#FFFFFF" stroke-width="0.25" stroke-miterlimit="10" d="M32.845,3.531h1.584v12.784h-1.584V3.531z"/>
	<path fill="#FFFFFF" stroke="#FFFFFF" stroke-width="0.25" stroke-miterlimit="10" d="M37.976,12.246
		c0.036,2.143,1.404,3.025,2.989,3.025c1.134,0,1.818-0.198,2.413-0.45l0.27,1.134c-0.558,0.252-1.512,0.541-2.899,0.541
		c-2.683,0-4.285-1.765-4.285-4.394c0-2.628,1.549-4.699,4.087-4.699c2.845,0,3.601,2.502,3.601,4.105
		c0,0.324-0.036,0.576-0.054,0.738H37.976z M42.621,11.111c0.018-1.008-0.415-2.575-2.197-2.575c-1.603,0-2.305,1.477-2.431,2.575
		H42.621z"/>
	<path fill="#FFFFFF" stroke="#FFFFFF" stroke-width="0.25" stroke-miterlimit="10" d="M50.936,16.315l-0.126-1.098h-0.054
		c-0.486,0.684-1.422,1.296-2.665,1.296c-1.765,0-2.665-1.243-2.665-2.503c0-2.106,1.873-3.259,5.239-3.241v-0.18
		c0-0.72-0.198-2.017-1.98-2.017c-0.81,0-1.656,0.252-2.269,0.648l-0.36-1.044c0.72-0.468,1.765-0.774,2.863-0.774
		c2.665,0,3.313,1.818,3.313,3.565v3.259c0,0.756,0.036,1.495,0.144,2.089H50.936z M50.702,11.868
		c-1.729-0.036-3.691,0.27-3.691,1.962c0,1.026,0.684,1.513,1.494,1.513c1.134,0,1.854-0.72,2.107-1.458
		c0.054-0.162,0.09-0.342,0.09-0.504V11.868z"/>
	<path fill="#FFFFFF" stroke="#FFFFFF" stroke-width="0.25" stroke-miterlimit="10" d="M54.787,10.319
		c0-1.026-0.018-1.909-0.072-2.719h1.387l0.054,1.711h0.072c0.396-1.17,1.35-1.909,2.413-1.909c0.18,0,0.306,0.018,0.45,0.054v1.494
		c-0.162-0.036-0.324-0.054-0.54-0.054c-1.116,0-1.909,0.846-2.125,2.034c-0.036,0.216-0.072,0.468-0.072,0.738v4.646h-1.566V10.319
		z"/>
</g>
</svg>
