<?xml version="1.0" encoding="utf-8"?>
<!-- Generator: Adobe Illustrator 16.0.0, SVG Export Plug-In . SVG Version: 6.00 Build 0)  -->
<!DOCTYPE svg PUBLIC "-//W3C//DTD SVG 1.1//EN" "http://www.w3.org/Graphics/SVG/1.1/DTD/svg11.dtd">
<svg version="1.1" id="Layer_1" xmlns="http://www.w3.org/2000/svg" xmlns:xlink="http://www.w3.org/1999/xlink" x="0px" y="0px"
	 width="12.907px" height="12.908px" viewBox="0 0 12.907 12.908" enable-background="new 0 0 12.907 12.908" xml:space="preserve">
<g>
	<g>
		<path fill="#989898" d="M6.453,0C2.895,0,0,2.896,0,6.453c0,3.559,2.895,6.455,6.453,6.455s6.454-2.896,6.454-6.455
			C12.907,2.896,10.012,0,6.453,0z M6.453,11.535c-2.801,0-5.08-2.279-5.08-5.082c0-2.801,2.279-5.08,5.08-5.08
			s5.08,2.279,5.08,5.08C11.533,9.255,9.254,11.535,6.453,11.535z"/>
		<path fill="#989898" d="M9.816,6.255h-2.9V2.767c0-0.293-0.237-0.531-0.53-0.531c-0.294,0-0.532,0.238-0.532,0.531v4.019
			c0,0.293,0.238,0.531,0.532,0.531h3.431c0.294,0,0.531-0.238,0.531-0.531C10.348,6.493,10.11,6.255,9.816,6.255z"/>
	</g>
</g>
</svg>
