<?xml version="1.0" encoding="utf-8"?>
<!-- Generator: Adobe Illustrator 16.0.0, SVG Export Plug-In . SVG Version: 6.00 Build 0)  -->
<!DOCTYPE svg PUBLIC "-//W3C//DTD SVG 1.1//EN" "http://www.w3.org/Graphics/SVG/1.1/DTD/svg11.dtd">
<svg version="1.1" id="Layer_1" xmlns="http://www.w3.org/2000/svg" xmlns:xlink="http://www.w3.org/1999/xlink" x="0px" y="0px"
	 width="80.206px" height="19.514px" viewBox="0 0 80.206 19.514" enable-background="new 0 0 80.206 19.514" xml:space="preserve">
<path fill="#3B5998" stroke="#FFFFFF" stroke-width="2" stroke-miterlimit="10" d="M79.206,9.757c0,4.836-3.921,8.757-8.758,8.757
	H9.757C4.92,18.514,1,14.593,1,9.757l0,0C1,4.921,4.92,1,9.757,1h60.691C75.285,1,79.206,4.921,79.206,9.757L79.206,9.757z"/>
<g>
	<path id="Facebook_1_" fill="#FFFFFF" d="M36.446,6.044c0,0.39,0,2.129,0,2.129h-1.56v2.604h1.56v7.737h3.205v-7.737h2.15
		c0,0,0.201-1.248,0.299-2.613c-0.28,0-2.437,0-2.437,0s0-1.515,0-1.78s0.349-0.624,0.693-0.624c0.346,0,1.072,0,1.746,0
		c0-0.354,0-1.579,0-2.711c-0.898,0-1.922,0-2.373,0C36.367,3.048,36.446,5.654,36.446,6.044z"/>
</g>
</svg>
