<?xml version="1.0" encoding="utf-8"?>
<!-- Generator: Adobe Illustrator 16.0.0, SVG Export Plug-In . SVG Version: 6.00 Build 0)  -->
<!DOCTYPE svg PUBLIC "-//W3C//DTD SVG 1.1//EN" "http://www.w3.org/Graphics/SVG/1.1/DTD/svg11.dtd">
<svg version="1.1" id="Layer_1" xmlns="http://www.w3.org/2000/svg" xmlns:xlink="http://www.w3.org/1999/xlink" x="0px" y="0px"
	 width="12.61px" height="13.076px" viewBox="0 0 12.61 13.076" enable-background="new 0 0 12.61 13.076" xml:space="preserve">
<g>
	<path fill="#989898" d="M3.55,13.076c-0.968-1.814-0.452-2.852,0.291-3.832c0.815-1.071,1.024-2.133,1.024-2.133
		s0.641,0.75,0.385,1.922C6.382,7.9,6.595,6.092,6.425,5.4c2.558,1.609,3.65,5.094,2.178,7.676
		c7.834-3.992,1.948-9.963,0.924-10.635c0.342,0.672,0.406,1.811-0.284,2.363C8.075,0.818,5.186,0,5.186,0
		c0.342,2.057-1.237,4.305-2.761,5.986C2.37,5.165,2.313,4.6,1.835,3.814C1.728,5.305,0.462,6.519,0.12,8.012
		C-0.343,10.033,0.468,11.512,3.55,13.076z"/>
</g>
</svg>
