<?xml version="1.0" encoding="utf-8"?>
<!-- Generator: Adobe Illustrator 16.0.0, SVG Export Plug-In . SVG Version: 6.00 Build 0)  -->
<!DOCTYPE svg PUBLIC "-//W3C//DTD SVG 1.1//EN" "http://www.w3.org/Graphics/SVG/1.1/DTD/svg11.dtd">
<svg version="1.1" id="Layer_1" xmlns="http://www.w3.org/2000/svg" xmlns:xlink="http://www.w3.org/1999/xlink" x="0px" y="0px"
	 width="270px" height="50px" viewBox="0 0 270 50" enable-background="new 0 0 270 50" xml:space="preserve">
<path stroke="#FFFFFF" stroke-width="2" stroke-miterlimit="10" d="M269,25c0,13.255-10.745,24-24,24H25C11.745,49,1,38.255,1,25
	l0,0C1,11.745,11.745,1,25,1h220C258.255,1,269,11.745,269,25L269,25z"/>
<g display="none" enable-background="new    ">
	<path display="inline" fill="#FFFFFF" d="M78.637,18.24l-0.833,1.768c-1.292-0.782-2.584-1.104-3.485-1.104
		c-1.173,0-1.938,0.441-1.938,1.24c0,2.601,6.425,1.207,6.408,5.491c0,2.124-1.87,3.434-4.487,3.434
		c-1.87,0-3.638-0.766-4.862-1.887l0.867-1.732c1.224,1.121,2.753,1.732,4.028,1.732c1.394,0,2.227-0.525,2.227-1.445
		c0-2.649-6.426-1.171-6.426-5.403c0-2.04,1.751-3.314,4.335-3.314C76.02,17.017,77.532,17.509,78.637,18.24z"/>
	<path display="inline" fill="#FFFFFF" d="M85.488,18.903V29h-2.006V18.903h-3.757v-1.802h9.536v1.802H85.488z"/>
	<path display="inline" fill="#FFFFFF" d="M91.49,26.314L90.351,29H88.26l5.252-11.898h2.057L100.771,29h-2.142l-1.139-2.686H91.49z
		 M94.481,19.243l-2.244,5.286h4.487L94.481,19.243z"/>
	<path display="inline" fill="#FFFFFF" d="M107.725,25.396c-0.17,0.017-0.357,0.017-0.544,0.017h-2.822V29h-2.006V17.102h4.828
		c3.042,0,4.793,1.479,4.793,4.062c0,1.903-0.884,3.246-2.465,3.858L112.178,29H109.9L107.725,25.396z M107.181,23.611
		c1.835,0,2.89-0.781,2.89-2.396c0-1.563-1.054-2.312-2.89-2.312h-2.822v4.708H107.181z"/>
	<path display="inline" fill="#FFFFFF" d="M118.995,18.903V29h-2.006V18.903h-3.757v-1.802h9.536v1.802H118.995z"/>
	<path display="inline" fill="#FFFFFF" d="M139.055,29l-2.822-9.281L133.377,29h-2.074l-3.944-11.898h2.159l2.89,9.671l2.873-9.654
		l1.971-0.017l2.891,9.671l2.873-9.671h2.073L141.111,29H139.055z"/>
	<path display="inline" fill="#FFFFFF" d="M158.043,23.051c0,3.399-2.754,6.034-6.307,6.034s-6.307-2.635-6.307-6.034
		c0-3.417,2.754-6.001,6.307-6.001S158.043,19.651,158.043,23.051z M147.471,23.051c0,2.362,1.955,4.232,4.283,4.232
		s4.232-1.87,4.232-4.232c0-2.363-1.904-4.199-4.232-4.199C149.408,18.852,147.471,20.688,147.471,23.051z"/>
	<path display="inline" fill="#FFFFFF" d="M165.559,25.396c-0.17,0.017-0.355,0.017-0.545,0.017h-2.82V29h-2.006V17.102h4.826
		c3.043,0,4.795,1.479,4.795,4.062c0,1.903-0.885,3.246-2.466,3.858L170.012,29h-2.277L165.559,25.396z M165.014,23.611
		c1.836,0,2.891-0.781,2.891-2.396c0-1.563-1.055-2.312-2.891-2.312h-2.82v4.708H165.014z"/>
	<path display="inline" fill="#FFFFFF" d="M176.506,23.747l-2.021,2.228V29h-2.006V17.102h2.006v6.153l5.678-6.153h2.361
		l-4.604,5.082L182.83,29h-2.414L176.506,23.747z"/>
	<path display="inline" fill="#FFFFFF" d="M195.919,23.051c0,3.399-2.753,6.034-6.306,6.034s-6.307-2.635-6.307-6.034
		c0-3.417,2.754-6.001,6.307-6.001S195.919,19.651,195.919,23.051z M185.346,23.051c0,2.362,1.955,4.232,4.284,4.232
		s4.231-1.87,4.231-4.232c0-2.363-1.902-4.199-4.231-4.199C187.284,18.852,185.346,20.688,185.346,23.051z"/>
	<path display="inline" fill="#FFFFFF" d="M208.176,24.07c0,3.112-1.955,5.015-5.168,5.015c-3.212,0-5.184-1.903-5.184-5.015v-6.969
		h2.006v6.969c0,2.006,1.24,3.213,3.195,3.213c1.938,0,3.145-1.189,3.145-3.213v-6.969h2.006V24.07z"/>
	<path display="inline" fill="#FFFFFF" d="M215.402,18.903V29h-2.006V18.903h-3.758v-1.802h9.535v1.802H215.402z"/>
</g>
<g>
	<path fill="#FFFFFF" d="M63.96,27.09c-0.576,1.36-2.193,2.209-4.21,2.225c-1.744,0-3.329-0.769-4.449-1.984l1.184-1.186
		c0.561,0.993,1.985,1.697,3.266,1.697c1.393-0.016,2.209-0.528,2.545-1.328c0.256-0.593,0.048-1.233,0.032-1.249
		c-0.336-0.928-1.265-1.136-2.577-1.537c-1.488-0.448-3.201-0.816-3.762-2.385c-0.304-0.816-0.224-1.761,0.192-2.529
		c0.929-1.761,3.297-1.809,3.569-1.809c1.761,0,3.329,0.769,4.45,2.001l-1.169,1.168c-0.656-0.96-1.937-1.697-3.281-1.697
		c-0.016,0-1.425,0-1.969,1.024c-0.208,0.4-0.256,0.928-0.112,1.345c0.32,0.88,1.232,1.088,2.514,1.472
		c1.521,0.464,3.233,0.816,3.841,2.433C64.072,24.865,64.456,25.953,63.96,27.09z"/>
	<path fill="#FFFFFF" d="M75.064,27.682v1.473h-8.292V17.149h7.987v1.473h-6.21v3.553h5.073v1.489H68.55v4.018H75.064z"/>
	<path fill="#FFFFFF" d="M85.592,27.682v1.473H77.3V17.149h7.987v1.473h-6.21v3.553h5.073v1.489h-5.073v4.018H85.592z"/>
	<path fill="#FFFFFF" d="M102.696,17.149l-4.946,7.235v4.77h-1.776v-4.77l-4.946-7.235h2.161l3.665,5.603l3.682-5.603H102.696z"/>
	<path fill="#FFFFFF" d="M114.888,23.152c0,3.489-2.736,6.163-6.098,6.163s-6.099-2.674-6.099-6.163
		c0-3.489,2.737-6.146,6.099-6.146S114.888,19.663,114.888,23.152z M104.468,23.152c0,2.45,1.793,4.69,4.322,4.69
		c2.545,0,4.321-2.24,4.321-4.69c0-2.433-1.793-4.674-4.321-4.674C106.261,18.478,104.468,20.719,104.468,23.152z"/>
	<path fill="#FFFFFF" d="M126.279,17.149v7.299c0,1.937-0.768,4.866-4.802,4.866c-4.033,0-4.834-2.93-4.834-4.866v-7.299h1.777
		v7.299c0,0.72,0.16,3.394,3.057,3.394c2.897,0,3.025-2.673,3.025-3.394v-7.299H126.279z"/>
	<path fill="#FFFFFF" d="M134.838,25.345l2.576,3.81h-1.969l-2.353-3.489h-2.801v3.489h-1.777v-3.489v-1.473v-5.57v-1.473h1.777
		h2.881c2.353,0.016,4.241,1.841,4.241,4.258C137.414,23.232,136.358,24.705,134.838,25.345z M130.292,24.192h2.865
		c1.36,0,2.48-1.152,2.48-2.785c0-1.617-1.12-2.785-2.48-2.785h-2.865V24.192z"/>
	<path fill="#FFFFFF" d="M150.774,25.345l2.576,3.81h-1.969l-2.353-3.489h-2.801v3.489h-1.777v-3.489v-1.473v-5.57v-1.473h1.777
		h2.881c2.353,0.016,4.241,1.841,4.241,4.258C153.351,23.232,152.295,24.705,150.774,25.345z M146.229,24.192h2.865
		c1.36,0,2.48-1.152,2.48-2.785c0-1.617-1.12-2.785-2.48-2.785h-2.865V24.192z"/>
	<path fill="#FFFFFF" d="M164.039,27.682v1.473h-8.292V17.149h7.987v1.473h-6.21v3.553h5.073v1.489h-5.073v4.018H164.039z"/>
	<path fill="#FFFFFF" d="M174.294,27.09c-0.576,1.36-2.193,2.209-4.21,2.225c-1.744,0-3.329-0.769-4.449-1.984l1.184-1.186
		c0.561,0.993,1.985,1.697,3.266,1.697c1.393-0.016,2.209-0.528,2.545-1.328c0.256-0.593,0.048-1.233,0.032-1.249
		c-0.336-0.928-1.265-1.136-2.577-1.537c-1.488-0.448-3.201-0.816-3.762-2.385c-0.304-0.816-0.224-1.761,0.192-2.529
		c0.929-1.761,3.297-1.809,3.569-1.809c1.761,0,3.329,0.769,4.45,2.001l-1.169,1.168c-0.656-0.96-1.937-1.697-3.281-1.697
		c-0.016,0-1.425,0-1.969,1.024c-0.208,0.4-0.256,0.928-0.112,1.345c0.32,0.88,1.232,1.088,2.514,1.472
		c1.521,0.464,3.233,0.816,3.841,2.433C174.406,24.865,174.79,25.953,174.294,27.09z"/>
	<path fill="#FFFFFF" d="M186.422,17.149v7.299c0,1.937-0.768,4.866-4.802,4.866c-4.033,0-4.834-2.93-4.834-4.866v-7.299h1.777
		v7.299c0,0.72,0.16,3.394,3.057,3.394c2.897,0,3.025-2.673,3.025-3.394v-7.299H186.422z"/>
	<path fill="#FFFFFF" d="M196.325,27.682v1.473h-7.827V17.149h1.777v10.532H196.325z"/>
	<path fill="#FFFFFF" d="M204.822,18.622h-3.714v10.532h-1.776V18.622h-3.714v-1.473h9.204V18.622z"/>
	<path fill="#FFFFFF" d="M214.278,27.09c-0.576,1.36-2.193,2.209-4.21,2.225c-1.744,0-3.329-0.769-4.449-1.984l1.184-1.186
		c0.561,0.993,1.985,1.697,3.266,1.697c1.393-0.016,2.209-0.528,2.545-1.328c0.256-0.593,0.048-1.233,0.032-1.249
		c-0.336-0.928-1.265-1.136-2.577-1.537c-1.488-0.448-3.201-0.816-3.762-2.385c-0.304-0.816-0.224-1.761,0.192-2.529
		c0.929-1.761,3.297-1.809,3.569-1.809c1.761,0,3.329,0.769,4.45,2.001l-1.169,1.168c-0.656-0.96-1.937-1.697-3.281-1.697
		c-0.016,0-1.425,0-1.969,1.024c-0.208,0.4-0.256,0.928-0.112,1.345c0.32,0.88,1.232,1.088,2.514,1.472
		c1.521,0.464,3.233,0.816,3.841,2.433C214.391,24.865,214.774,25.953,214.278,27.09z"/>
</g>
</svg>
