<?xml version="1.0" encoding="utf-8"?>
<!-- Generator: Adobe Illustrator 16.0.0, SVG Export Plug-In . SVG Version: 6.00 Build 0)  -->
<!DOCTYPE svg PUBLIC "-//W3C//DTD SVG 1.1//EN" "http://www.w3.org/Graphics/SVG/1.1/DTD/svg11.dtd">
<svg version="1.1" id="Layer_1" xmlns="http://www.w3.org/2000/svg" xmlns:xlink="http://www.w3.org/1999/xlink" x="0px" y="0px"
	 width="162.064px" height="38px" viewBox="0 0 162.064 38" enable-background="new 0 0 162.064 38" xml:space="preserve">
<path d="M162.064,22c0,8.837-7.162,16-16,16H16C7.162,38,0,30.837,0,22v-6C0,7.163,7.162,0,16,0h130.064c8.838,0,16,7.163,16,16V22z
	"/>
<g>
	<path fill="#FFFFFF" d="M56.41,10.817h1.584v5.438h0.036c0.252-0.45,0.647-0.847,1.134-1.117c0.469-0.27,1.027-0.45,1.621-0.45
		c1.17,0,3.043,0.721,3.043,3.728v5.186h-1.585v-5.006c0-1.404-0.522-2.593-2.017-2.593c-1.025,0-1.836,0.721-2.125,1.585
		c-0.09,0.216-0.107,0.45-0.107,0.756v5.258H56.41V10.817z"/>
	<path fill="#FFFFFF" d="M68.164,12.438c0.018,0.54-0.379,0.972-1.008,0.972c-0.559,0-0.955-0.432-0.955-0.972
		c0-0.559,0.414-0.99,0.99-0.99C67.785,11.448,68.164,11.879,68.164,12.438z M66.399,23.601v-8.715h1.585v8.715H66.399z"/>
	<path fill="#FFFFFF" d="M70.395,21.981c0.469,0.306,1.297,0.63,2.09,0.63c1.152,0,1.691-0.576,1.691-1.297
		c0-0.756-0.449-1.17-1.62-1.602c-1.566-0.559-2.305-1.423-2.305-2.467c0-1.405,1.134-2.558,3.007-2.558
		c0.883,0,1.656,0.253,2.143,0.541l-0.396,1.152c-0.342-0.217-0.972-0.505-1.781-0.505c-0.938,0-1.459,0.54-1.459,1.188
		c0,0.721,0.521,1.045,1.656,1.477c1.513,0.576,2.287,1.332,2.287,2.629c0,1.53-1.188,2.61-3.26,2.61
		c-0.953,0-1.836-0.233-2.448-0.594L70.395,21.981z"/>
	<path fill="#FFFFFF" d="M79.648,12.383v2.503h2.268v1.207h-2.268v4.699c0,1.08,0.305,1.692,1.188,1.692
		c0.414,0,0.721-0.054,0.918-0.108l0.072,1.188c-0.306,0.126-0.792,0.216-1.404,0.216c-0.738,0-1.332-0.233-1.711-0.666
		c-0.449-0.468-0.611-1.242-0.611-2.269v-4.753h-1.351v-1.207H78.1v-2.088L79.648,12.383z"/>
	<path fill="#FFFFFF" d="M91.476,19.171c0,3.224-2.232,4.628-4.339,4.628c-2.359,0-4.178-1.729-4.178-4.483
		c0-2.917,1.908-4.628,4.321-4.628C89.783,14.688,91.476,16.507,91.476,19.171z M84.562,19.262c0,1.908,1.099,3.349,2.647,3.349
		c1.512,0,2.646-1.423,2.646-3.385c0-1.477-0.738-3.35-2.611-3.35S84.562,17.605,84.562,19.262z"/>
	<path fill="#FFFFFF" d="M93.471,17.605c0-1.026-0.018-1.908-0.072-2.719h1.387l0.055,1.711h0.072
		c0.396-1.171,1.35-1.909,2.412-1.909c0.18,0,0.307,0.019,0.45,0.055v1.494c-0.162-0.036-0.324-0.054-0.54-0.054
		c-1.117,0-1.908,0.846-2.125,2.034c-0.035,0.216-0.072,0.469-0.072,0.738v4.646h-1.566V17.605z"/>
	<path fill="#FFFFFF" d="M100.383,14.886l1.909,5.149c0.198,0.576,0.414,1.261,0.558,1.783h0.037
		c0.161-0.522,0.342-1.188,0.558-1.819l1.729-5.113h1.675l-2.377,6.212c-1.135,2.989-1.908,4.52-2.989,5.456
		c-0.774,0.684-1.548,0.954-1.944,1.026l-0.396-1.333c0.396-0.126,0.918-0.378,1.387-0.773c0.432-0.343,0.973-0.955,1.332-1.765
		c0.072-0.162,0.127-0.288,0.127-0.379c0-0.09-0.037-0.216-0.109-0.414l-3.223-8.03H100.383z"/>
</g>
</svg>
