<?xml version="1.0" encoding="utf-8"?>
<!-- Generator: Adobe Illustrator 16.0.0, SVG Export Plug-In . SVG Version: 6.00 Build 0)  -->
<!DOCTYPE svg PUBLIC "-//W3C//DTD SVG 1.1//EN" "http://www.w3.org/Graphics/SVG/1.1/DTD/svg11.dtd">
<svg version="1.1" id="Layer_1" xmlns="http://www.w3.org/2000/svg" xmlns:xlink="http://www.w3.org/1999/xlink" x="0px" y="0px"
	 width="162.065px" height="38px" viewBox="0 0 162.065 38" enable-background="new 0 0 162.065 38" xml:space="preserve">
<path d="M162.065,22c0,8.837-7.163,16-16,16H16C7.164,38,0,30.837,0,22v-6C0,7.163,7.164,0,16,0h130.065c8.837,0,16,7.163,16,16V22z
	"/>
<g>
	<path fill="#FFFFFF" d="M60.396,10.216h1.584v5.438h0.036c0.252-0.45,0.648-0.847,1.134-1.117c0.468-0.27,1.026-0.45,1.62-0.45
		c1.17,0,3.043,0.721,3.043,3.728V23H66.23v-5.006c0-1.404-0.522-2.593-2.018-2.593c-1.025,0-1.836,0.721-2.124,1.585
		c-0.09,0.216-0.108,0.45-0.108,0.756V23h-1.584V10.216z"/>
	<path fill="#FFFFFF" d="M78.272,18.57c0,3.224-2.232,4.628-4.339,4.628c-2.359,0-4.178-1.729-4.178-4.483
		c0-2.917,1.908-4.628,4.321-4.628C76.58,14.087,78.272,15.906,78.272,18.57z M71.358,18.661c0,1.908,1.099,3.349,2.647,3.349
		c1.512,0,2.646-1.423,2.646-3.385c0-1.477-0.738-3.35-2.611-3.35C72.168,15.275,71.358,17.004,71.358,18.661z"/>
	<path fill="#FFFFFF" d="M80.267,16.645c0-0.9-0.018-1.639-0.072-2.359h1.387l0.072,1.404h0.055
		c0.485-0.828,1.296-1.603,2.736-1.603c1.188,0,2.088,0.721,2.467,1.747h0.036c0.271-0.486,0.612-0.864,0.972-1.135
		c0.522-0.396,1.099-0.612,1.927-0.612c1.152,0,2.863,0.757,2.863,3.781V23h-1.549v-4.934c0-1.675-0.612-2.683-1.891-2.683
		c-0.899,0-1.603,0.666-1.872,1.44c-0.072,0.216-0.127,0.504-0.127,0.792V23h-1.548v-5.222c0-1.387-0.612-2.395-1.818-2.395
		c-0.99,0-1.711,0.792-1.963,1.584c-0.09,0.234-0.126,0.505-0.126,0.774V23h-1.549V16.645z"/>
	<path fill="#FFFFFF" d="M96.162,18.931c0.036,2.143,1.404,3.025,2.989,3.025c1.134,0,1.818-0.198,2.413-0.45l0.27,1.134
		c-0.559,0.252-1.512,0.54-2.898,0.54c-2.684,0-4.285-1.764-4.285-4.393s1.548-4.7,4.087-4.7c2.845,0,3.601,2.503,3.601,4.105
		c0,0.324-0.035,0.576-0.054,0.738H96.162z M100.807,17.797c0.019-1.009-0.414-2.575-2.196-2.575c-1.603,0-2.305,1.477-2.431,2.575
		H100.807z"/>
</g>
</svg>
