<?xml version="1.0" encoding="utf-8"?>
<!-- Generator: Adobe Illustrator 16.0.0, SVG Export Plug-In . SVG Version: 6.00 Build 0)  -->
<!DOCTYPE svg PUBLIC "-//W3C//DTD SVG 1.1//EN" "http://www.w3.org/Graphics/SVG/1.1/DTD/svg11.dtd">
<svg version="1.1" id="Layer_1" xmlns="http://www.w3.org/2000/svg" xmlns:xlink="http://www.w3.org/1999/xlink" x="0px" y="0px"
	 width="80.206px" height="19.514px" viewBox="0 0 80.206 19.514" enable-background="new 0 0 80.206 19.514" xml:space="preserve">
<path fill="#FF2876" stroke="#FFFFFF" stroke-width="2" stroke-miterlimit="10" d="M79.206,9.757c0,4.836-3.921,8.757-8.758,8.757
	H9.757C4.92,18.514,1,14.593,1,9.757l0,0C1,4.921,4.92,1,9.757,1h60.691C75.285,1,79.206,4.921,79.206,9.757L79.206,9.757z"/>
<g>
	<path fill="#FFFFFF" stroke="#FFFFFF" stroke-miterlimit="10" d="M41.511,7.607c-1.323,0-2.399,1.076-2.399,2.398
		c0,1.323,1.076,2.399,2.399,2.399c1.322,0,2.398-1.076,2.398-2.399C43.909,8.684,42.833,7.607,41.511,7.607z M41.511,11.72
		c-0.945,0-1.713-0.77-1.713-1.714s0.768-1.713,1.713-1.713c0.944,0,1.713,0.769,1.713,1.713S42.455,11.72,41.511,11.72z"/>
	<path fill="#FFFFFF" stroke="#FFFFFF" stroke-miterlimit="10" d="M44.766,3.152h-6.511c-1.89,0-3.427,1.537-3.427,3.427v6.683
		c0,1.889,1.537,3.427,3.427,3.427h6.511c1.89,0,3.427-1.538,3.427-3.427V6.579C48.192,4.689,46.655,3.152,44.766,3.152z
		 M47.507,13.262c0,1.512-1.229,2.741-2.741,2.741h-6.511c-1.511,0-2.741-1.229-2.741-2.741V6.579c0-1.512,1.23-2.741,2.741-2.741
		h6.511c1.512,0,2.741,1.229,2.741,2.741V13.262z"/>
	<circle fill="#FFFFFF" cx="44.847" cy="6.124" r="0.938"/>
</g>
</svg>
