<?xml version="1.0" encoding="utf-8"?>
<!-- Generator: Adobe Illustrator 16.0.0, SVG Export Plug-In . SVG Version: 6.00 Build 0)  -->
<!DOCTYPE svg PUBLIC "-//W3C//DTD SVG 1.1//EN" "http://www.w3.org/Graphics/SVG/1.1/DTD/svg11.dtd">
<svg version="1.1" id="Capa_1" xmlns="http://www.w3.org/2000/svg" xmlns:xlink="http://www.w3.org/1999/xlink" x="0px" y="0px"
	 width="512px" height="512px" viewBox="0 0 512 512" enable-background="new 0 0 512 512" xml:space="preserve">
<g>
	<path fill="#FFFFFF" d="M455.262,242.91c-6.789-6.789-15.028-10.18-24.729-10.18h-11.63v-69.822
		c0-44.605-15.996-82.905-47.997-114.905C338.906,16.001,300.61,0,255.999,0c-44.61,0-82.914,16.001-114.91,48.001
		c-32.001,32.001-47.997,70.3-47.997,114.906v69.822H81.457c-9.694,0-17.938,3.392-24.727,10.18
		c-6.789,6.783-10.182,15.028-10.182,24.73v209.452c0,9.694,3.395,17.94,10.182,24.73C63.519,508.604,71.763,512,81.457,512h349.084
		c9.701,0,17.938-3.392,24.729-10.178c6.782-6.79,10.182-15.036,10.182-24.73V267.636
		C465.457,257.941,462.053,249.698,455.262,242.91z M349.088,232.729H162.91v-69.822c0-25.696,9.093-47.637,27.274-65.815
		c18.184-18.181,40.121-27.27,65.819-27.27c25.701,0,47.632,9.087,65.818,27.27c18.176,18.178,27.268,40.12,27.268,65.815V232.729z"
		/>
</g>
</svg>
