<?xml version="1.0" encoding="utf-8"?>
<!-- Generator: Adobe Illustrator 16.0.0, SVG Export Plug-In . SVG Version: 6.00 Build 0)  -->
<!DOCTYPE svg PUBLIC "-//W3C//DTD SVG 1.1//EN" "http://www.w3.org/Graphics/SVG/1.1/DTD/svg11.dtd">
<svg version="1.1" id="Layer_1" xmlns="http://www.w3.org/2000/svg" xmlns:xlink="http://www.w3.org/1999/xlink" x="0px" y="0px"
	 width="216.958px" height="40.5px" viewBox="28 -51.167 216.958 40.5" enable-background="new 28 -51.167 216.958 40.5"
	 xml:space="preserve">
<path fill="none" stroke="#1DB954" stroke-width="2" stroke-miterlimit="10" d="M243.959-30.917c0,10.632-8.619,19.25-19.25,19.25
	H48.25c-10.631,0-19.25-8.618-19.25-19.25l0,0c0-10.631,8.619-19.25,19.25-19.25h176.458
	C235.34-50.167,243.959-41.548,243.959-30.917L243.959-30.917z"/>
<g>
	<path fill="#1DB954" d="M82.664-36.676v8.995h-1.331v-6.752l-3.466,6.752h-0.755l-3.466-6.752v6.752h-1.331v-8.995h0.18h1.427
		l3.562,6.956l3.562-6.956h1.428H82.664z"/>
	<path fill="#1DB954" d="M91.81-36.676v5.469c0,1.451-0.576,3.646-3.598,3.646c-3.022,0-3.622-2.195-3.622-3.646v-5.469h1.331v5.469
		c0,0.54,0.12,2.542,2.291,2.542s2.267-2.003,2.267-2.542v-5.469H91.81z"/>
	<path fill="#1DB954" d="M99.431-35.572h-2.783v7.892h-1.331v-7.892h-2.782v-1.104h6.896V-35.572z"/>
	<path fill="#1DB954" d="M106.727-28.784v1.104h-6.213v-8.995h5.985v1.104h-4.653v2.663h3.802v1.115h-3.802v3.01H106.727z"/>
	<path fill="#1DB954" d="M113.341-27.681h-1.332v-8.995h1.332V-27.681z"/>
	<path fill="#1DB954" d="M123.633-27.681h-1.606l-4.821-7.16v7.16h-1.344v-8.995h1.607l4.833,7.16v-7.16h1.331V-27.681z"/>
	<path fill="#1DB954" d="M131.806-29.228c-0.432,1.02-1.643,1.655-3.154,1.667c-1.307,0-2.494-0.576-3.334-1.487l0.888-0.888
		c0.42,0.744,1.487,1.271,2.446,1.271c1.044-0.012,1.655-0.396,1.907-0.996c0.191-0.444,0.036-0.923,0.024-0.936
		c-0.252-0.695-0.948-0.852-1.932-1.151c-1.115-0.335-2.398-0.611-2.818-1.787c-0.228-0.611-0.168-1.319,0.145-1.895
		c0.695-1.319,2.47-1.355,2.674-1.355c1.319,0,2.495,0.576,3.334,1.499l-0.875,0.875c-0.492-0.719-1.451-1.271-2.459-1.271
		c-0.012,0-1.067,0-1.475,0.768c-0.156,0.3-0.192,0.695-0.084,1.007c0.239,0.66,0.923,0.815,1.883,1.104
		c1.14,0.348,2.423,0.612,2.878,1.823C131.89-30.895,132.178-30.08,131.806-29.228z"/>
	<path fill="#1DB954" d="M139.738-35.572h-2.783v7.892h-1.331v-7.892h-2.782v-1.104h6.896V-35.572z"/>
	<path fill="#1DB954" d="M145.438-30.535l1.931,2.854h-1.476l-1.763-2.615h-2.099v2.615H140.7v-2.615v-1.103v-4.174v-1.104h1.332
		h2.158c1.764,0.012,3.179,1.379,3.179,3.19C147.369-32.118,146.577-31.015,145.438-30.535z M142.032-31.398h2.146
		c1.02,0,1.859-0.864,1.859-2.087c0-1.211-0.84-2.087-1.859-2.087h-2.146V-31.398z"/>
	<path fill="#1DB954" d="M156.153-36.676v5.469c0,1.451-0.576,3.646-3.598,3.646c-3.022,0-3.622-2.195-3.622-3.646v-5.469h1.331
		v5.469c0,0.54,0.12,2.542,2.291,2.542s2.267-2.003,2.267-2.542v-5.469H156.153z"/>
	<path fill="#1DB954" d="M165.369-28.928c-0.827,0.912-2.015,1.368-3.322,1.368c-2.53,0-4.569-2.003-4.569-4.618
		c0-2.603,2.039-4.605,4.569-4.605c1.308,0,2.495,0.456,3.334,1.379l-0.875,0.875c-0.528-0.768-1.487-1.151-2.459-1.151
		c-1.858,0-3.238,1.655-3.238,3.502c0,1.691,1.248,3.514,3.238,3.514c0.863,0,1.967-0.336,2.447-1.14L165.369-28.928z"/>
	<path fill="#1DB954" d="M173.002-35.572h-2.783v7.892h-1.331v-7.892h-2.782v-1.104h6.896V-35.572z"/>
	<path fill="#1DB954" d="M175.417-27.681h-1.332v-8.995h1.332V-27.681z"/>
	<path fill="#1DB954" d="M186.236-32.178c0,2.615-2.051,4.618-4.569,4.618s-4.57-2.003-4.57-4.618s2.052-4.605,4.57-4.605
		S186.236-34.793,186.236-32.178z M178.429-32.178c0,1.835,1.343,3.514,3.238,3.514c1.906,0,3.238-1.679,3.238-3.514
		c0-1.823-1.344-3.502-3.238-3.502C179.771-35.68,178.429-34.001,178.429-32.178z"/>
	<path fill="#1DB954" d="M195.692-27.681h-1.606l-4.821-7.16v7.16h-1.344v-8.995h1.607l4.833,7.16v-7.16h1.331V-27.681z"/>
	<path fill="#1DB954" d="M203.865-29.228c-0.432,1.02-1.643,1.655-3.154,1.667c-1.307,0-2.494-0.576-3.334-1.487l0.888-0.888
		c0.42,0.744,1.487,1.271,2.446,1.271c1.044-0.012,1.655-0.396,1.907-0.996c0.191-0.444,0.036-0.923,0.024-0.936
		c-0.252-0.695-0.948-0.852-1.932-1.151c-1.115-0.335-2.398-0.611-2.818-1.787c-0.228-0.611-0.168-1.319,0.145-1.895
		c0.695-1.319,2.47-1.355,2.674-1.355c1.319,0,2.495,0.576,3.334,1.499l-0.875,0.875c-0.492-0.719-1.451-1.271-2.459-1.271
		c-0.012,0-1.067,0-1.475,0.768c-0.156,0.3-0.192,0.695-0.084,1.007c0.239,0.66,0.923,0.815,1.883,1.104
		c1.14,0.348,2.423,0.612,2.878,1.823C203.949-30.895,204.237-30.08,203.865-29.228z"/>
</g>
</svg>
