<?xml version="1.0" encoding="utf-8"?>
<!-- Generator: Adobe Illustrator 16.0.0, SVG Export Plug-In . SVG Version: 6.00 Build 0)  -->
<!DOCTYPE svg PUBLIC "-//W3C//DTD SVG 1.1//EN" "http://www.w3.org/Graphics/SVG/1.1/DTD/svg11.dtd">
<svg version="1.1" id="Layer_1" xmlns="http://www.w3.org/2000/svg" xmlns:xlink="http://www.w3.org/1999/xlink" x="0px" y="0px"
	 width="30.641px" height="30.64px" viewBox="87.688 -163.539 30.641 30.64" enable-background="new 87.688 -163.539 30.641 30.64"
	 xml:space="preserve">
<path fill="none" stroke="#1DB954" stroke-width="2" stroke-miterlimit="10" d="M243.959-30.917c0,10.632-8.619,19.25-19.25,19.25
	H48.25c-10.631,0-19.25-8.618-19.25-19.25l0,0c0-10.631,8.619-19.25,19.25-19.25h176.458
	C235.34-50.167,243.959-41.548,243.959-30.917L243.959-30.917z"/>
<g>
	<path fill="#1DB954" d="M73.664-36.676v8.995h-1.331v-6.752l-3.466,6.752h-0.755l-3.466-6.752v6.752h-1.331v-8.995h0.18h1.427
		l3.562,6.956l3.562-6.956h1.428H73.664z"/>
	<path fill="#1DB954" d="M82.81-36.676v5.469c0,1.451-0.576,3.646-3.598,3.646s-3.622-2.195-3.622-3.646v-5.469h1.331v5.469
		c0,0.54,0.12,2.542,2.291,2.542s2.267-2.003,2.267-2.542v-5.469H82.81z"/>
	<path fill="#1DB954" d="M90.431-35.572h-2.783v7.892h-1.331v-7.892h-2.782v-1.104h6.896V-35.572z"/>
	<path fill="#1DB954" d="M97.727-28.784v1.104h-6.213v-8.995h5.985v1.104h-4.653v2.663h3.802v1.115h-3.802v3.01L97.727-28.784
		L97.727-28.784z"/>
	<path fill="#1DB954" d="M104.34-27.681h-1.332v-8.995h1.332V-27.681z"/>
	<path fill="#1DB954" d="M114.633-27.681h-1.606l-4.821-7.16v7.16h-1.344v-8.995h1.607l4.832,7.16v-7.16h1.332V-27.681z"/>
	<path fill="#1DB954" d="M122.806-29.228c-0.433,1.02-1.644,1.655-3.154,1.667c-1.307,0-2.493-0.576-3.334-1.487l0.888-0.888
		c0.42,0.744,1.487,1.271,2.446,1.271c1.044-0.012,1.655-0.396,1.907-0.996c0.191-0.444,0.035-0.923,0.023-0.936
		c-0.252-0.695-0.947-0.852-1.932-1.151c-1.115-0.335-2.398-0.611-2.818-1.787c-0.228-0.611-0.168-1.319,0.146-1.895
		c0.694-1.319,2.47-1.355,2.674-1.355c1.319,0,2.495,0.576,3.334,1.499l-0.875,0.875c-0.491-0.719-1.45-1.271-2.459-1.271
		c-0.012,0-1.067,0-1.476,0.768c-0.155,0.3-0.191,0.695-0.084,1.007c0.24,0.66,0.924,0.815,1.884,1.104
		c1.14,0.348,2.423,0.612,2.878,1.823C122.89-30.895,123.178-30.08,122.806-29.228z"/>
	<path fill="#1DB954" d="M130.738-35.572h-2.782v7.892h-1.332v-7.892h-2.781v-1.104h6.896V-35.572z"/>
	<path fill="#1DB954" d="M136.438-30.535l1.932,2.854h-1.477l-1.764-2.615h-2.098v2.615H131.7v-2.615v-1.103v-4.174v-1.104h1.332
		h2.158c1.764,0.012,3.18,1.379,3.18,3.19C138.37-32.118,137.577-31.015,136.438-30.535z M133.032-31.398h2.146
		c1.02,0,1.859-0.864,1.859-2.087c0-1.211-0.841-2.087-1.859-2.087h-2.146V-31.398z"/>
	<path fill="#1DB954" d="M147.153-36.676v5.469c0,1.451-0.576,3.646-3.598,3.646s-3.622-2.195-3.622-3.646v-5.469h1.331v5.469
		c0,0.54,0.119,2.542,2.291,2.542c2.171,0,2.267-2.003,2.267-2.542v-5.469H147.153z"/>
	<path fill="#1DB954" d="M156.37-28.928c-0.828,0.912-2.016,1.368-3.322,1.368c-2.53,0-4.569-2.003-4.569-4.618
		c0-2.604,2.039-4.605,4.569-4.605c1.308,0,2.494,0.456,3.334,1.379l-0.875,0.875c-0.528-0.768-1.487-1.151-2.459-1.151
		c-1.858,0-3.238,1.655-3.238,3.502c0,1.691,1.248,3.514,3.238,3.514c0.863,0,1.967-0.336,2.447-1.14L156.37-28.928z"/>
	<path fill="#1DB954" d="M164.002-35.572h-2.783v7.892h-1.331v-7.892h-2.782v-1.104h6.896V-35.572z"/>
	<path fill="#1DB954" d="M166.417-27.681h-1.332v-8.995h1.332V-27.681z"/>
	<path fill="#1DB954" d="M177.236-32.178c0,2.615-2.051,4.618-4.569,4.618c-2.518,0-4.569-2.003-4.569-4.618
		c0-2.615,2.052-4.605,4.569-4.605C175.185-36.783,177.236-34.793,177.236-32.178z M169.429-32.178c0,1.835,1.343,3.514,3.237,3.514
		c1.906,0,3.238-1.679,3.238-3.514c0-1.823-1.344-3.502-3.238-3.502C170.771-35.68,169.429-34.001,169.429-32.178z"/>
	<path fill="#1DB954" d="M186.692-27.681h-1.605l-4.821-7.16v7.16h-1.345v-8.995h1.607l4.833,7.16v-7.16h1.331V-27.681
		L186.692-27.681z"/>
	<path fill="#1DB954" d="M194.866-29.228c-0.433,1.02-1.644,1.655-3.154,1.667c-1.308,0-2.494-0.576-3.334-1.487l0.888-0.888
		c0.42,0.744,1.487,1.271,2.446,1.271c1.043-0.012,1.654-0.396,1.906-0.996c0.191-0.444,0.036-0.923,0.024-0.936
		c-0.252-0.695-0.948-0.852-1.933-1.151c-1.115-0.335-2.397-0.611-2.817-1.787c-0.228-0.611-0.168-1.319,0.146-1.895
		c0.694-1.319,2.469-1.355,2.674-1.355c1.318,0,2.494,0.576,3.334,1.499l-0.875,0.875c-0.492-0.719-1.451-1.271-2.459-1.271
		c-0.012,0-1.067,0-1.476,0.768c-0.155,0.3-0.192,0.695-0.084,1.007c0.239,0.66,0.923,0.815,1.884,1.104
		c1.139,0.348,2.422,0.612,2.877,1.823C194.95-30.895,195.237-30.08,194.866-29.228z"/>
</g>
<g>
	<g>
		<path fill="#FFFFFF" d="M218.374-15.899c-8.446,0-15.32-6.873-15.32-15.32c0-8.448,6.874-15.32,15.32-15.32
			c8.447,0,15.32,6.873,15.32,15.32C233.694-22.771,226.821-15.899,218.374-15.899z M218.374-45.343
			c-7.787,0-14.123,6.336-14.123,14.124c0,7.788,6.336,14.123,14.123,14.123c7.788,0,14.124-6.335,14.124-14.123
			C232.498-39.007,226.162-45.343,218.374-45.343z"/>
	</g>
	<polygon fill="#FFFFFF" points="215.106,-33.882 215.106,-28.505 219.622,-25.898 219.622,-36.489 	"/>
	<rect x="212.054" y="-33.882" fill="#FFFFFF" width="2.448" height="5.423"/>
	
		<rect x="222.788" y="-33.39" transform="matrix(0.7071 0.7071 -0.7071 0.7071 43.0503 -167.0229)" fill="#FFFFFF" width="0.703" height="3.691"/>
	
		<rect x="222.788" y="-33.39" transform="matrix(-0.7068 0.7075 -0.7075 -0.7068 358.5283 -211.7002)" fill="#FFFFFF" width="0.703" height="3.69"/>
</g>
<g>
	<g>
		<path fill="#FFFFFF" d="M103.008-132.899c-8.446,0-15.32-6.873-15.32-15.32c0-8.448,6.874-15.32,15.32-15.32
			c8.447,0,15.32,6.873,15.32,15.32C118.329-139.771,111.456-132.899,103.008-132.899z M103.008-162.343
			c-7.787,0-14.123,6.336-14.123,14.124c0,7.788,6.336,14.123,14.123,14.123c7.788,0,14.124-6.335,14.124-14.123
			C117.132-156.007,110.796-162.343,103.008-162.343z"/>
	</g>
	<polygon fill="#FFFFFF" points="99.741,-150.882 99.741,-145.505 104.256,-142.898 104.256,-153.489 	"/>
	<rect x="96.689" y="-150.882" fill="#FFFFFF" width="2.448" height="5.423"/>
	
		<rect x="107.423" y="-150.39" transform="matrix(0.7071 0.7071 -0.7071 0.7071 -73.4709 -119.7159)" fill="#FFFFFF" width="0.703" height="3.691"/>
	
		<rect x="107.422" y="-150.39" transform="matrix(-0.7068 0.7075 -0.7075 -0.7068 78.8555 -329.7755)" fill="#FFFFFF" width="0.703" height="3.69"/>
</g>
</svg>
