<?xml version="1.0" encoding="utf-8"?>
<!-- Generator: Adobe Illustrator 16.0.0, SVG Export Plug-In . SVG Version: 6.00 Build 0)  -->
<!DOCTYPE svg PUBLIC "-//W3C//DTD SVG 1.1//EN" "http://www.w3.org/Graphics/SVG/1.1/DTD/svg11.dtd">
<svg version="1.1" id="Layer_1" xmlns="http://www.w3.org/2000/svg" xmlns:xlink="http://www.w3.org/1999/xlink" x="0px" y="0px"
	 width="36px" height="36px" viewBox="7.062 -148.139 36 36" enable-background="new 7.062 -148.139 36 36" xml:space="preserve">
<g>
	<path fill="#FFFFFF" d="M25.062-112.139c-9.924,0-18-8.075-18-18c0-9.925,8.076-18,18-18c9.925,0,18,8.075,18,18
		C43.062-120.213,34.987-112.139,25.062-112.139z M25.062-146.733c-9.149,0-16.593,7.444-16.593,16.595
		c0,9.15,7.444,16.594,16.593,16.594c9.15,0,16.594-7.444,16.594-16.594C41.657-139.289,34.213-146.733,25.062-146.733z"/>
</g>
<polygon fill="#FFFFFF" points="19.218,-134.72 19.218,-125.103 27.295,-120.439 27.295,-139.383 "/>
<rect x="13.759" y="-134.72" fill="#FFFFFF" width="4.379" height="9.7"/>
<rect x="32.959" y="-133.84" transform="matrix(0.7071 0.7071 -0.7071 0.7071 -82.4682 -61.9842)" fill="#FFFFFF" width="1.257" height="6.601"/>
<rect x="32.958" y="-133.839" transform="matrix(-0.7067 0.7075 -0.7075 -0.7067 -35.0331 -246.5567)" fill="#FFFFFF" width="1.257" height="6.6"/>
</svg>
