<?xml version="1.0" encoding="utf-8"?>
<!-- Generator: Adobe Illustrator 16.0.0, SVG Export Plug-In . SVG Version: 6.00 Build 0)  -->
<!DOCTYPE svg PUBLIC "-//W3C//DTD SVG 1.1//EN" "http://www.w3.org/Graphics/SVG/1.1/DTD/svg11.dtd">
<svg version="1.1" id="Layer_1" xmlns="http://www.w3.org/2000/svg" xmlns:xlink="http://www.w3.org/1999/xlink" x="0px" y="0px"
	 width="270px" height="50px" viewBox="0 0 270 50" enable-background="new 0 0 270 50" xml:space="preserve">
<path stroke="#FFFFFF" stroke-width="2" stroke-miterlimit="10" d="M269,25c0,13.255-10.745,24-24,24H25C11.745,49,1,38.255,1,25
	l0,0C1,11.745,11.745,1,25,1h220C258.255,1,269,11.745,269,25L269,25z"/>
<g display="none" enable-background="new    ">
	<path display="inline" fill="#FFFFFF" d="M78.637,18.24l-0.833,1.768c-1.292-0.782-2.584-1.104-3.485-1.104
		c-1.173,0-1.938,0.441-1.938,1.24c0,2.601,6.425,1.207,6.408,5.491c0,2.124-1.87,3.434-4.487,3.434
		c-1.87,0-3.638-0.766-4.862-1.887l0.867-1.733c1.224,1.122,2.753,1.733,4.028,1.733c1.394,0,2.227-0.526,2.227-1.445
		c0-2.65-6.426-1.172-6.426-5.404c0-2.04,1.751-3.314,4.335-3.314C76.02,17.017,77.532,17.509,78.637,18.24z"/>
	<path display="inline" fill="#FFFFFF" d="M85.488,18.903V29h-2.006V18.903h-3.757v-1.802h9.536v1.802H85.488z"/>
	<path display="inline" fill="#FFFFFF" d="M91.49,26.314L90.351,29H88.26l5.252-11.898h2.057L100.771,29h-2.142l-1.139-2.686H91.49z
		 M94.481,19.243l-2.244,5.286h4.487L94.481,19.243z"/>
	<path display="inline" fill="#FFFFFF" d="M107.725,25.396c-0.17,0.017-0.357,0.017-0.544,0.017h-2.822V29h-2.006V17.102h4.828
		c3.042,0,4.793,1.479,4.793,4.062c0,1.903-0.884,3.246-2.465,3.858L112.178,29H109.9L107.725,25.396z M107.181,23.611
		c1.835,0,2.89-0.781,2.89-2.396c0-1.563-1.054-2.312-2.89-2.312h-2.822v4.708H107.181z"/>
	<path display="inline" fill="#FFFFFF" d="M118.995,18.903V29h-2.006V18.903h-3.757v-1.802h9.536v1.802H118.995z"/>
	<path display="inline" fill="#FFFFFF" d="M139.055,29l-2.822-9.281L133.377,29h-2.074l-3.944-11.898h2.159l2.89,9.671l2.873-9.654
		l1.971-0.017l2.891,9.671l2.873-9.671h2.073L141.111,29H139.055z"/>
	<path display="inline" fill="#FFFFFF" d="M158.043,23.051c0,3.399-2.754,6.034-6.307,6.034s-6.307-2.635-6.307-6.034
		c0-3.417,2.754-6.001,6.307-6.001S158.043,19.651,158.043,23.051z M147.471,23.051c0,2.362,1.955,4.232,4.283,4.232
		s4.232-1.87,4.232-4.232c0-2.363-1.904-4.199-4.232-4.199C149.408,18.852,147.471,20.688,147.471,23.051z"/>
	<path display="inline" fill="#FFFFFF" d="M165.559,25.396c-0.17,0.017-0.356,0.017-0.545,0.017h-2.82V29h-2.006V17.102h4.826
		c3.043,0,4.795,1.479,4.795,4.062c0,1.903-0.885,3.246-2.466,3.858L170.012,29h-2.277L165.559,25.396z M165.014,23.611
		c1.836,0,2.891-0.781,2.891-2.396c0-1.563-1.055-2.312-2.891-2.312h-2.82v4.708H165.014z"/>
	<path display="inline" fill="#FFFFFF" d="M176.506,23.747l-2.021,2.228V29h-2.006V17.102h2.006v6.153l5.677-6.153h2.362
		l-4.605,5.082L182.83,29h-2.414L176.506,23.747z"/>
	<path display="inline" fill="#FFFFFF" d="M195.919,23.051c0,3.399-2.753,6.034-6.306,6.034s-6.307-2.635-6.307-6.034
		c0-3.417,2.754-6.001,6.307-6.001S195.919,19.651,195.919,23.051z M185.346,23.051c0,2.362,1.955,4.232,4.284,4.232
		s4.231-1.87,4.231-4.232c0-2.363-1.902-4.199-4.231-4.199C187.284,18.852,185.346,20.688,185.346,23.051z"/>
	<path display="inline" fill="#FFFFFF" d="M208.176,24.07c0,3.112-1.955,5.015-5.168,5.015c-3.212,0-5.184-1.903-5.184-5.015v-6.969
		h2.006v6.969c0,2.006,1.24,3.213,3.195,3.213c1.938,0,3.145-1.189,3.145-3.213v-6.969h2.006V24.07z"/>
	<path display="inline" fill="#FFFFFF" d="M215.402,18.903V29h-2.006V18.903h-3.758v-1.802h9.536v1.802H215.402z"/>
</g>
<g>
	<path fill="#FFFFFF" d="M120.806,18.326l-0.833,1.768c-1.292-0.782-2.584-1.105-3.485-1.105c-1.173,0-1.938,0.442-1.938,1.241
		c0,2.601,6.425,1.207,6.408,5.49c0,2.125-1.87,3.434-4.487,3.434c-1.87,0-3.638-0.765-4.862-1.887l0.867-1.733
		c1.224,1.121,2.753,1.733,4.028,1.733c1.394,0,2.227-0.526,2.227-1.444c0-2.652-6.426-1.173-6.426-5.406
		c0-2.04,1.751-3.315,4.335-3.315C118.188,17.102,119.701,17.595,120.806,18.326z"/>
	<path fill="#FFFFFF" d="M124.886,26.4l-1.139,2.686h-2.091l5.252-11.899h2.057l5.202,11.899h-2.142l-1.139-2.686H124.886z
		 M127.878,19.329l-2.244,5.286h4.487L127.878,19.329z"/>
	<path fill="#FFFFFF" d="M138.146,29.086l-4.743-11.899h2.159l3.672,9.673l3.705-9.673h2.091l-4.811,11.899H138.146z"/>
	<path fill="#FFFFFF" d="M148.652,18.988v3.213h5.812v1.802h-5.812v3.28h6.697v1.803h-8.703V17.187h8.498v1.802H148.652z"/>
</g>
</svg>
