<?xml version="1.0" encoding="utf-8"?>
<!-- Generator: Adobe Illustrator 16.0.0, SVG Export Plug-In . SVG Version: 6.00 Build 0)  -->
<!DOCTYPE svg PUBLIC "-//W3C//DTD SVG 1.1//EN" "http://www.w3.org/Graphics/SVG/1.1/DTD/svg11.dtd">
<svg version="1.1" id="Capa_1" xmlns="http://www.w3.org/2000/svg" xmlns:xlink="http://www.w3.org/1999/xlink" x="0px" y="0px"
	 width="512px" height="512px" viewBox="0 0 512 512" enable-background="new 0 0 512 512" xml:space="preserve">
<g>
	<path fill="#FFFFFF" d="M440.073,246.519l69.148-69.148c3.708-3.707,3.708-9.7,0-13.407c-3.707-3.708-9.699-3.708-13.406,0
		l-69.148,69.148l-69.148-69.148c-3.708-3.708-9.7-3.708-13.407,0c-3.707,3.707-3.707,9.7,0,13.407l69.148,69.148l-69.148,69.148
		c-3.707,3.707-3.707,9.7,0,13.407c1.849,1.849,4.276,2.777,6.703,2.777c2.428,0,4.854-0.929,6.704-2.777l69.148-69.148
		l69.148,69.148c1.849,1.849,4.275,2.777,6.703,2.777c2.427,0,4.854-0.929,6.703-2.777c3.708-3.707,3.708-9.7,0-13.407
		L440.073,246.519z"/>
	<path fill="#FFFFFF" d="M269.312,41.719c-9.245-5.234-20.206-5.063-29.298,0.417c-0.436,0.256-0.853,0.56-1.232,0.882
		L110.308,151.704H9.481c-5.243,0-9.481,4.238-9.481,9.481v180.149c0,2.521,0.996,4.93,2.778,6.703
		c1.782,1.772,4.181,2.777,6.703,2.777l100.599-0.047l128.408,117.949c0.474,0.437,0.986,0.815,1.526,1.138
		c4.665,2.816,9.833,4.229,15,4.229c4.902-0.01,9.795-1.271,14.299-3.812c9.472-5.347,15.132-15.113,15.132-26.121V67.85
		C284.444,56.841,278.784,47.076,269.312,41.719z M265.481,444.15c0,4.087-2.058,7.68-5.489,9.624
		c-1.471,0.825-5.196,2.418-9.482,0.246L123.259,337.123v-43.197c0-5.243-4.238-9.481-9.481-9.481s-9.481,4.238-9.481,9.481v37.889
		l-85.333,0.037V170.667h85.333v37.926c0,5.243,4.238,9.481,9.481,9.481s9.481-4.238,9.481-9.481v-43.008l127.099-107.52
		c4.361-2.294,8.154-0.664,9.634,0.171c3.432,1.943,5.489,5.527,5.489,9.614V444.15z"/>
</g>
</svg>
