<?xml version="1.0" encoding="utf-8"?>
<!-- Generator: Adobe Illustrator 16.0.0, SVG Export Plug-In . SVG Version: 6.00 Build 0)  -->
<!DOCTYPE svg PUBLIC "-//W3C//DTD SVG 1.1//EN" "http://www.w3.org/Graphics/SVG/1.1/DTD/svg11.dtd">
<svg version="1.1" id="Layer_1" xmlns="http://www.w3.org/2000/svg" xmlns:xlink="http://www.w3.org/1999/xlink" x="0px" y="0px"
	 width="80.205px" height="19.514px" viewBox="0 0 80.205 19.514" enable-background="new 0 0 80.205 19.514" xml:space="preserve">
<path fill="#55ACEE" stroke="#FFFFFF" stroke-width="2" stroke-miterlimit="10" d="M79.205,9.757c0,4.836-3.92,8.757-8.757,8.757
	H9.757C4.92,18.514,1,14.593,1,9.757l0,0C1,4.921,4.92,1,9.757,1h60.691C75.285,1,79.205,4.921,79.205,9.757L79.205,9.757z"/>
<g id="XMLID_1_">
	<path id="XMLID_2_" fill="#FFFFFF" d="M47.815,5.384c-0.237,0.106-0.481,0.194-0.731,0.267c0.295-0.334,0.521-0.729,0.658-1.159
		c0.031-0.097-0.001-0.202-0.08-0.266s-0.189-0.071-0.277-0.02c-0.53,0.315-1.104,0.542-1.703,0.674
		c-0.605-0.591-1.427-0.928-2.275-0.928c-1.793,0-3.252,1.459-3.252,3.252c0,0.142,0.01,0.28,0.027,0.42
		c-2.225-0.195-4.292-1.289-5.713-3.031c-0.05-0.062-0.128-0.096-0.208-0.089c-0.08,0.006-0.152,0.051-0.191,0.121
		c-0.289,0.493-0.441,1.06-0.441,1.634c0,0.783,0.28,1.526,0.774,2.107c-0.15-0.052-0.296-0.116-0.435-0.194
		c-0.075-0.042-0.166-0.041-0.24,0.002c-0.075,0.043-0.121,0.121-0.123,0.206c0,0.015,0,0.028,0,0.043
		c0,1.17,0.629,2.223,1.591,2.797c-0.083-0.009-0.165-0.021-0.247-0.037c-0.085-0.016-0.172,0.015-0.229,0.078
		c-0.057,0.064-0.076,0.154-0.05,0.237c0.356,1.112,1.273,1.93,2.381,2.179c-0.919,0.575-1.97,0.877-3.074,0.877
		c-0.23,0-0.461-0.014-0.688-0.041c-0.113-0.013-0.22,0.054-0.258,0.161c-0.039,0.107,0.002,0.227,0.098,0.288
		c1.418,0.909,3.058,1.39,4.741,1.39c3.31,0,5.38-1.561,6.534-2.869c1.439-1.634,2.266-3.795,2.266-5.931
		c0-0.089-0.002-0.179-0.004-0.269c0.567-0.428,1.057-0.945,1.453-1.541c0.061-0.09,0.055-0.209-0.016-0.292
		C48.032,5.366,47.915,5.339,47.815,5.384z"/>
</g>
</svg>
