<?xml version="1.0" encoding="utf-8"?>
<!-- Generator: Adobe Illustrator 16.0.0, SVG Export Plug-In . SVG Version: 6.00 Build 0)  -->
<!DOCTYPE svg PUBLIC "-//W3C//DTD SVG 1.1//EN" "http://www.w3.org/Graphics/SVG/1.1/DTD/svg11.dtd">
<svg version="1.1" id="Layer_1" xmlns="http://www.w3.org/2000/svg" xmlns:xlink="http://www.w3.org/1999/xlink" x="0px" y="0px"
	 width="36px" height="36px" viewBox="51.688 -148.081 36 36" enable-background="new 51.688 -148.081 36 36" xml:space="preserve">
<g>
	<path fill="#95FF14" d="M69.688-112.081c-9.924,0-18-8.075-18-18s8.076-18,18-18c9.925,0,18,8.075,18,18
		S79.613-112.081,69.688-112.081z M69.688-146.675c-9.149,0-16.593,7.444-16.593,16.594c0,9.15,7.444,16.594,16.593,16.594
		c9.15,0,16.592-7.443,16.592-16.594C86.28-139.231,78.837-146.675,69.688-146.675z"/>
</g>
<polygon fill="#95FF14" points="62.813,-135.442 62.813,-125.638 71.047,-120.884 71.047,-140.196 "/>
<rect x="57.253" y="-135.442" fill="#95FF14" width="4.461" height="9.889"/>
<path fill="#95FF14" d="M78.596-134.515l-0.674,0.389c0.691,1.042,1.095,2.289,1.095,3.628c0,1.339-0.404,2.585-1.095,3.628
	l0.674,0.388c0.753-1.157,1.197-2.535,1.197-4.016C79.793-131.978,79.35-133.357,78.596-134.515z"/>
<path fill="#95FF14" d="M76.577-133.349l-0.675,0.391c0.494,0.696,0.786,1.544,0.786,2.46c0,0.917-0.292,1.764-0.786,2.461
	l0.675,0.39c0.558-0.812,0.885-1.793,0.885-2.851C77.462-131.556,77.135-132.536,76.577-133.349z"/>
<path fill="#95FF14" d="M74.881-132.368l-0.679,0.391c0.335,0.404,0.543,0.914,0.543,1.479c0,0.565-0.208,1.076-0.543,1.478
	l0.679,0.393c0.397-0.521,0.642-1.164,0.642-1.871C75.522-131.204,75.278-131.847,74.881-132.368z"/>
<path fill="#95FF14" d="M80.611-135.678l-0.674,0.389c0.887,1.385,1.408,3.028,1.408,4.792c0,1.764-0.521,3.406-1.408,4.792
	l0.674,0.388c0.953-1.502,1.512-3.275,1.512-5.18C82.123-132.402,81.564-134.176,80.611-135.678z"/>
</svg>
