<?xml version="1.0" encoding="utf-8"?>
<!-- Generator: Adobe Illustrator 16.0.0, SVG Export Plug-In . SVG Version: 6.00 Build 0)  -->
<!DOCTYPE svg PUBLIC "-//W3C//DTD SVG 1.1//EN" "http://www.w3.org/Graphics/SVG/1.1/DTD/svg11.dtd">
<svg version="1.1" id="Capa_1" xmlns="http://www.w3.org/2000/svg" xmlns:xlink="http://www.w3.org/1999/xlink" x="0px" y="0px"
	 width="512px" height="512px" viewBox="0 0 512 512" enable-background="new 0 0 512 512" xml:space="preserve">
<g>
	<path fill="#91DC5A" d="M279.53,33.588c-9.604-5.432-20.972-5.255-30.409,0.433c-0.453,0.266-0.886,0.581-1.279,0.916
		l-133.349,112.81H9.841c-5.442,0-9.841,4.399-9.841,9.841v186.983c0,2.618,1.033,5.117,2.883,6.958
		c1.85,1.84,4.34,2.883,6.958,2.883l104.416-0.049l133.28,122.425c0.492,0.452,1.023,0.847,1.584,1.181
		c4.842,2.923,10.205,4.39,15.568,4.39c5.088-0.01,10.166-1.319,14.841-3.956c9.831-5.551,15.706-15.688,15.706-27.113V60.71
		C295.236,49.285,289.361,39.148,279.53,33.588z M275.555,451.289c0,4.242-2.136,7.972-5.698,9.989
		c-1.525,0.856-5.394,2.51-9.841,0.256l-132.08-121.333v-44.836c0-5.442-4.399-9.842-9.841-9.842s-9.841,4.399-9.841,9.842v39.325
		l-88.571,0.04V167.429h88.571v39.365c0,5.442,4.399,9.841,9.841,9.841s9.841-4.399,9.841-9.841v-44.64L259.857,50.555
		c4.537-2.382,8.464-0.689,9.999,0.177c3.562,2.018,5.698,5.748,5.698,9.979V451.289z"/>
	<path fill="#91DC5A" d="M381.811,69.538c-5.147-1.742-10.737,1.014-12.488,6.161c-1.742,5.137,1.014,10.737,6.16,12.489
		c69.883,23.727,116.835,89.191,116.835,162.902c0,73.642-46.864,139.116-116.608,162.912c-5.138,1.752-7.893,7.342-6.131,12.498
		c1.397,4.085,5.216,6.663,9.31,6.663c1.053,0,2.126-0.168,3.179-0.531c77.706-26.503,129.924-99.456,129.924-181.532
		C512,168.935,459.684,95.981,381.811,69.538z"/>
	<path fill="#91DC5A" d="M423.429,251.08c0-58.772-39.453-111.226-95.942-127.562c-5.245-1.486-10.668,1.496-12.183,6.731
		c-1.506,5.216,1.495,10.678,6.731,12.184c48.113,13.906,81.721,58.585,81.721,108.647c0,50.062-33.607,94.741-81.721,108.647
		c-5.227,1.506-8.237,6.968-6.731,12.184c1.249,4.311,5.176,7.115,9.457,7.115c0.905,0,1.82-0.128,2.726-0.384
		C383.985,362.305,423.429,309.852,423.429,251.08z"/>
</g>
</svg>
