<?xml version="1.0" encoding="utf-8"?>
<!-- Generator: Adobe Illustrator 16.0.0, SVG Export Plug-In . SVG Version: 6.00 Build 0)  -->
<!DOCTYPE svg PUBLIC "-//W3C//DTD SVG 1.1//EN" "http://www.w3.org/Graphics/SVG/1.1/DTD/svg11.dtd">
<svg version="1.1" id="Layer_1" xmlns="http://www.w3.org/2000/svg" xmlns:xlink="http://www.w3.org/1999/xlink" x="0px" y="0px"
	 width="121.302px" height="33.855px" viewBox="-178.021 77.48 121.302 33.855"
	 enable-background="new -178.021 77.48 121.302 33.855" xml:space="preserve">
<polygon fill="#FFFFFF" points="-88.722,91.085 -88.722,97.732 -83.139,100.955 -83.139,87.862 "/>
<rect x="-92.494" y="91.085" fill="#FFFFFF" width="3.026" height="6.705"/>
<rect x="-79.224" y="91.693" transform="matrix(0.7071 0.7071 -0.7071 0.7071 43.3727 83.2374)" fill="#FFFFFF" width="0.869" height="4.562"/>
<rect x="-79.225" y="91.694" transform="matrix(-0.7065 0.7077 -0.7077 -0.7065 -67.9567 216.1295)" fill="#FFFFFF" width="0.869" height="4.562"/>
<g>
	<path fill="#FFFFFF" d="M-132.142,88.648v10.506h-1.555v-7.887l-4.048,7.887h-0.882l-4.048-7.887v7.887h-1.555V88.648h0.21h1.667
		l4.16,8.125l4.161-8.125h1.667H-132.142z"/>
	<path fill="#FFFFFF" d="M-121.476,88.648v6.388c0,1.694-0.672,4.259-4.202,4.259c-3.53,0-4.23-2.564-4.23-4.259v-6.388h1.555v6.388
		c0,0.63,0.14,2.97,2.676,2.97c2.535,0,2.647-2.34,2.647-2.97v-6.388H-121.476z"/>
	<path fill="#FFFFFF" d="M-112.587,89.938h-3.25v9.217h-1.555v-9.217h-3.25v-1.289h8.054V89.938z"/>
	<path fill="#FFFFFF" d="M-104.075,97.865v1.289h-7.256V88.648h6.99v1.289h-5.435v3.109h4.44v1.303h-4.44v3.516H-104.075z"/>
</g>
<path fill="none" stroke="#FFFFFF" stroke-width="2" stroke-miterlimit="10" d="M-57.719,94.408c0,8.797-7.131,15.928-15.928,15.928
	h-87.446c-8.796,0-15.928-7.131-15.928-15.928l0,0c0-8.796,7.131-15.928,15.928-15.928h87.446
	C-64.85,78.48-57.719,85.612-57.719,94.408L-57.719,94.408z"/>
</svg>
